<?xml version="1.0" encoding="UTF-8" standalone="no"?>
<svg
   xmlns:dc="http://purl.org/dc/elements/1.1/"
   xmlns:cc="http://creativecommons.org/ns#"
   xmlns:rdf="http://www.w3.org/1999/02/22-rdf-syntax-ns#"
   xmlns:svg="http://www.w3.org/2000/svg"
   xmlns="http://www.w3.org/2000/svg"
   viewBox="0 0 258.66666 258.66666"
   height="258.66666"
   width="258.66666"
   xml:space="preserve"
   id="svg2"
   version="1.1"><metadata
     id="metadata8"><rdf:RDF><cc:Work
         rdf:about=""><dc:format>image/svg+xml</dc:format><dc:type
           rdf:resource="http://purl.org/dc/dcmitype/StillImage" /></cc:Work></rdf:RDF></metadata><defs
     id="defs6" /><g
     transform="matrix(1.3333333,0,0,-1.3333333,0,258.66667)"
     id="g10"><g
       transform="scale(0.1)"
       id="g12"><path
         id="path14"
         style="fill:#ffffff;fill-opacity:1;fill-rule:evenodd;stroke:none"
         d="M 2.59766,1933.23 H 1930.16 V 5.66797 H 2.59766 V 1933.23" /><path
         id="path16"
         style="fill:#005c87;fill-opacity:1;fill-rule:evenodd;stroke:none"
         d="M 87.6367,651.074 H 145.641 V 880.852 L 236.215,680.52 c 10.262,-24.094 24.984,-33.016 53.539,-33.016 28.555,0 42.387,8.922 53.094,33.016 l 90.129,200.332 V 651.074 h 58.449 v 229.778 c 0,22.308 -8.926,33.019 -27.664,38.816 -44.168,13.387 -73.617,1.785 -87.004,-28.105 L 287.973,693.461 202.305,891.563 c -12.942,29.89 -42.832,41.492 -87.453,28.105 C 96.5625,913.871 87.6367,903.16 87.6367,880.852 V 651.074" /><path
         id="path18"
         style="fill:#005c87;fill-opacity:1;fill-rule:evenodd;stroke:none"
         d="m 539.613,838.02 h 58.45 V 711.75 c -0.446,-7.137 2.23,-23.199 33.906,-23.645 16.508,-0.445 125.82,0 126.715,0 V 838.91 h 58.449 c 0,0 0,-205.683 0,-206.578 0,-50.863 -62.91,-62.019 -92.356,-62.465 H 540.953 v 38.821 c 0.445,0 183.824,0 184.27,0 37.476,4.011 33.015,22.753 33.015,29 v 15.167 h -123.59 c -57.558,0.45 -94.589,25.879 -95.035,54.883 0,2.676 1.34,129.391 0,130.282" /><path
         id="path20"
         style="fill:#005c87;fill-opacity:1;fill-rule:evenodd;stroke:none"
         d="m 1793.36,984.363 c -35.69,0.895 -63.35,-2.675 -86.56,-12.492 -6.69,-2.676 -17.4,-2.676 -18.29,-11.152 3.57,-3.571 4.02,-9.371 7.14,-14.278 5.35,-8.925 14.73,-20.972 23.2,-27.218 9.37,-7.137 18.74,-14.278 28.56,-20.524 17.4,-10.711 37.03,-16.953 53.98,-27.664 9.82,-6.242 19.63,-14.277 29.45,-20.969 4.91,-3.57 8.03,-9.371 14.28,-11.601 0,0.445 0,0.894 0,1.34 -3.12,4.015 -4.02,9.816 -7.14,14.277 -4.46,4.461 -8.92,8.477 -13.39,12.941 -12.93,17.399 -29,32.571 -46.4,45.063 -14.28,9.816 -45.51,23.199 -51.31,39.711 0,0 -0.45,0.441 -0.89,0.887 9.81,0.894 21.42,4.464 30.79,7.14 15.17,4.016 29,3.125 44.61,7.141 7.14,1.785 14.28,4.015 21.42,6.246 0,1.336 0,2.676 0,4.016 -8.03,8.031 -13.83,18.738 -22.31,26.323 -22.75,19.63 -47.74,38.82 -73.62,54.88 -13.83,8.92 -31.68,14.73 -46.4,22.31 -5.35,2.68 -14.28,4.01 -17.4,8.47 -8.03,9.82 -12.49,22.76 -18.29,34.36 -12.94,24.54 -25.44,51.76 -36.59,77.63 -8.03,17.41 -12.94,34.81 -22.75,50.87 -45.96,75.85 -95.93,121.81 -172.68,166.87 -16.5,9.37 -36.13,13.38 -57.11,18.29 -11.15,0.45 -22.3,1.34 -33.46,1.79 -7.14,3.12 -14.27,11.6 -20.52,15.61 -25.43,16.07 -91.02,50.87 -109.76,4.91 -12.05,-29 17.85,-57.56 28.11,-72.28 7.58,-10.26 17.4,-21.86 22.76,-33.46 3.12,-7.59 4.01,-15.62 7.13,-23.65 7.14,-19.63 13.83,-41.49 23.21,-59.79 4.9,-9.37 10.26,-19.18 16.5,-27.66 3.57,-4.91 9.82,-7.14 11.16,-15.17 -6.25,-8.92 -6.7,-22.31 -10.27,-33.46 -16.06,-50.42 -9.81,-112.89 12.94,-149.92 7.14,-11.15 24.1,-35.69 46.85,-26.32 20.08,8.03 15.62,33.46 21.42,55.77 1.34,5.35 0.45,8.92 3.12,12.49 0,-0.44 0,-0.89 0,-0.89 6.25,-12.49 12.49,-24.54 18.29,-37.03 13.84,-21.87 37.93,-44.62 58,-59.791 10.72,-8.031 19.19,-21.859 32.58,-26.77 0,0.446 0,0.891 0,1.34 -0.45,0 -0.45,0 -0.9,0 -2.68,4.016 -6.69,5.801 -10.26,8.922 -8.03,8.031 -16.95,17.848 -23.2,26.774 -18.74,24.985 -35.25,52.645 -49.97,81.205 -7.14,13.83 -13.39,29 -19.18,42.83 -2.68,5.36 -2.68,13.38 -7.14,16.06 -6.7,-9.81 -16.51,-18.29 -21.42,-30.34 -8.48,-19.19 -9.37,-42.83 -12.49,-67.37 -1.79,-0.45 -0.89,0 -1.79,-0.89 -14.28,3.57 -19.18,18.29 -24.54,30.78 -13.38,31.68 -15.62,82.54 -4.01,119.13 3.12,9.37 16.51,38.82 11.15,47.74 -2.68,8.48 -11.6,13.39 -16.51,20.08 -5.8,8.48 -12.05,19.18 -16.06,28.56 -10.71,24.98 -16.06,52.64 -27.66,77.63 -5.36,11.6 -14.72,23.65 -22.31,34.35 -8.48,12.05 -17.85,20.53 -24.54,34.81 -2.23,4.91 -5.35,12.93 -1.78,18.29 0.89,3.57 2.67,4.9 6.24,5.8 5.8,4.91 22.31,-1.34 28.11,-4.02 16.51,-6.69 30.34,-12.93 44.17,-22.31 6.25,-4.46 12.94,-12.93 20.97,-15.16 3.12,0 6.25,0 9.37,0 14.28,-3.13 30.34,-0.9 43.73,-4.91 23.64,-7.59 45.06,-18.74 64.25,-30.79 58.44,-37.03 106.63,-89.68 139.2,-152.59 5.35,-10.26 7.58,-19.63 12.49,-30.34 9.37,-21.86 20.98,-44.17 30.34,-65.59 9.37,-20.97 18.3,-42.39 31.68,-59.79 6.7,-9.36 33.47,-14.27 45.51,-19.18 8.92,-4.02 22.76,-7.59 30.79,-12.49 15.17,-9.37 30.34,-20.08 44.61,-30.34 7.14,-5.36 29.45,-16.511 30.79,-25.437" /><path
         id="path22"
         style="fill:#005c87;fill-opacity:1;fill-rule:evenodd;stroke:none"
         d="m 1338.27,1372.09 c -7.59,0 -12.94,-0.89 -18.3,-2.23 0,0 0,-0.45 0,-0.89 0.45,0 0.45,0 0.89,0 3.57,-7.14 9.82,-12.05 14.28,-18.29 3.57,-7.14 6.69,-14.28 10.26,-21.42 0.45,0.44 0.89,0.89 0.89,0.89 6.25,4.46 9.37,11.6 9.37,22.31 -2.67,3.12 -3.12,6.25 -5.35,9.37 -2.67,4.46 -8.48,6.69 -12.04,10.26" /><path
         id="path24"
         style="fill:#e3820f;fill-opacity:1;fill-rule:evenodd;stroke:none"
         d="m 861.75,651.074 h 167.76 c 19.63,0 38.37,4.012 53.54,11.153 25.43,11.601 37.48,27.214 37.48,47.742 v 42.832 c 0,16.508 -13.83,32.125 -41.49,42.832 -14.28,5.351 -32.13,8.476 -49.53,8.476 h -70.494 c -23.645,0 -34.801,7.141 -37.926,22.758 -0.445,1.781 -0.445,3.567 -0.445,5.352 v 26.324 c 0,1.34 0,3.125 0.445,4.906 3.125,12.047 9.371,15.172 29.894,17.403 1.786,0 4.016,0 5.352,0 h 166.424 v 38.816 H 959.461 c -23.645,0 -36.137,-1.336 -47.293,-4.906 -34.355,-10.707 -49.527,-27.66 -49.527,-57.555 v -33.914 c 0,-26.32 29.449,-48.629 79.422,-53.984 5.351,-0.446 11.152,-0.446 16.953,-0.446 h 60.234 c 2.23,0 4.46,0 6.25,-0.449 18.29,-1.781 26.32,-4.906 31.68,-11.598 3.56,-3.57 4.46,-6.691 4.46,-10.711 v -33.906 c 0,-4.015 -2.68,-9.371 -8.03,-13.832 -5.36,-4.461 -13.84,-7.586 -24.99,-8.031 -2.23,0 -3.57,-0.445 -5.8,-0.445 H 861.75 v -38.817" /><path
         id="path26"
         style="fill:#e3820f;fill-opacity:1;fill-rule:evenodd;stroke:none"
         d="m 1483.72,718.445 c 0,-39.711 29.89,-62.019 89.68,-66.48 5.8,-0.445 11.15,-0.891 16.95,-0.891 h 151.7 v 38.817 h -153.04 c -33.9,0 -46.85,8.476 -46.85,29 v 200.777 h -58.44 V 718.445" /><path
         id="path28"
         style="fill:#e3820f;fill-opacity:1;fill-rule:evenodd;stroke:none"
         d="m 1157.56,716.66 v 138.313 c 0,35.25 24.99,56.668 73.62,63.359 5.36,0.445 10.71,0.891 15.62,0.891 h 110.65 c 5.8,0 10.71,-0.446 16.51,-0.891 48.63,-6.691 73.17,-28.109 73.17,-63.359 V 716.66 c 0,-28.555 -10.26,-43.726 -34.36,-53.988 l 57.12,-51.754 h -67.37 l -46.41,41.937 -46.85,-2.675 h -62.46 c -10.26,0 -21.87,1.34 -33.91,4.461 -37.03,10.261 -55.33,29.894 -55.33,62.019 z m 62.91,3.121 c 0,-1.781 0.9,-3.566 1.34,-5.801 3.12,-16.058 18.3,-24.984 41.5,-24.984 h 52.64 l -48.18,43.727 h 67.37 l 42.39,-38.371 c 8.03,4.461 12.93,10.707 14.72,18.738 0.45,1.785 0.45,4.015 0.45,5.801 v 132.515 c 0,1.782 0,3.567 -0.45,5.352 -3.12,15.172 -18.29,23.648 -41.05,23.648 h -87.89 c -25.88,0 -42.84,-11.152 -42.84,-29 V 719.781" /><path
         id="path30"
         style="fill:#e3820f;fill-opacity:1;fill-rule:evenodd;stroke:none"
         d="m 1768.82,650.625 h 8.48 v 32.574 h 11.15 v 6.692 h -31.23 v -6.692 h 11.6 z m 64.7,0 h 8.03 v 39.266 h -12.05 l -9.81,-26.77 -10.71,26.77 h -11.6 v -39.266 h 7.58 v 29.895 h 0.45 l 11.15,-29.895 h 5.8 l 11.16,29.895 v 0 -29.895" /></g></g></svg>