<svg xmlns="http://www.w3.org/2000/svg" viewBox="0 0 728.32 126.85"><defs><style>.cls-1{fill:#233142;}.cls-2{fill:#ff5959;}</style></defs><title>Asset 4</title><g id="Layer_2" data-name="Layer 2"><g id="Layer_1-2" data-name="Layer 1"><path class="cls-1" d="M76.15,63.13A23.67,23.67,0,0,0,79,58.62a20,20,0,0,0,1.62-5.07,17.25,17.25,0,0,0-.21-7.39A15,15,0,0,0,71.88,36a17.12,17.12,0,0,0-7.3-1.51H39.26a1.93,1.93,0,0,0-1.38.49,2.25,2.25,0,0,0-.66,1.31L27.57,91a1.44,1.44,0,0,0,.24,1.28,1.6,1.6,0,0,0,1.19.41H40.64A1.9,1.9,0,0,0,42.74,91l3.12-17.68h6.35l6.36,17.92a1.46,1.46,0,0,0,.5,1,1.65,1.65,0,0,0,1.13.4H73.64a1.94,1.94,0,0,0,1.18-.34,1.41,1.41,0,0,0,.58-1,2.43,2.43,0,0,0-.2-1.29q-.3-.75-.48-1.29L68,69.85a25.8,25.8,0,0,0,4.42-2.92A24.89,24.89,0,0,0,76.15,63.13ZM64,56.15a9.14,9.14,0,0,1-1.52,2.16,8.3,8.3,0,0,1-2.13,1.61,7,7,0,0,1-2.61.8l-1.23.12c-.37,0-.79,0-1.26,0H48.05l2.54-14.39H56c.76,0,1.45,0,2.09.06l2,.14A5.38,5.38,0,0,1,64,49.2a6.17,6.17,0,0,1,.83,2.15,6.4,6.4,0,0,1,0,2.35A8.84,8.84,0,0,1,64,56.15Z"/><path class="cls-1" d="M129.24,47.94a2,2,0,0,0,1.48-.6,2.55,2.55,0,0,0,.69-1.27l1.71-9.7a1.67,1.67,0,0,0-.23-1.36,1.45,1.45,0,0,0-1.24-.51H92.76A1.93,1.93,0,0,0,91.4,35a2.27,2.27,0,0,0-.68,1.31L81.07,91a1.41,1.41,0,0,0,.25,1.28,1.56,1.56,0,0,0,1.18.41h39.63a1.65,1.65,0,0,0,1.8-1.1,1.2,1.2,0,0,0,.44-.7l1.73-9.85c.22-1.2-.27-1.8-1.44-1.8H98.32l1.77-10h19.63a1.86,1.86,0,0,0,1.35-.51,2.06,2.06,0,0,0,.62-1.06l1.49-8.47A1.15,1.15,0,0,0,122.9,58a1.79,1.79,0,0,0-1.18-.36H102.13l1.71-9.72Z"/><path class="cls-1" d="M156,52.61a18.27,18.27,0,0,1,5.25-3.33,15.83,15.83,0,0,1,6.14-1.22,14,14,0,0,1,4.76.78A12,12,0,0,1,176,51.08a1.47,1.47,0,0,0,1.13.33,2,2,0,0,0,1.06-.76l8.28-9.41a1.72,1.72,0,0,0,.38-1.49,1.86,1.86,0,0,0-.8-1A24.36,24.36,0,0,0,178.86,35a27.11,27.11,0,0,0-8.65-1.31,31.2,31.2,0,0,0-8.16,1.07,37.13,37.13,0,0,0-7.69,3,37.84,37.84,0,0,0-6.88,4.69,39.51,39.51,0,0,0-5.76,6.09,37.24,37.24,0,0,0-4.28,7.17,33.12,33.12,0,0,0-2.47,8,29.27,29.27,0,0,0-.35,8,25.36,25.36,0,0,0,1.76,7.13,24.1,24.1,0,0,0,3.62,6,23.36,23.36,0,0,0,5.23,4.68,24.42,24.42,0,0,0,6.63,3,27.57,27.57,0,0,0,7.79,1.06,31.75,31.75,0,0,0,9.19-1.35,38.2,38.2,0,0,0,8.61-3.83,3.1,3.1,0,0,0,1.15-1,1.54,1.54,0,0,0,.14-1.45l-5-9.64a1.23,1.23,0,0,0-.82-.7,2,2,0,0,0-1.23.35A18.63,18.63,0,0,1,167,78.22a16.4,16.4,0,0,1-5.08.81,12.85,12.85,0,0,1-5.71-1.22,11.16,11.16,0,0,1-4.08-3.31A12.23,12.23,0,0,1,150,69.6a15.39,15.39,0,0,1,0-6,18.93,18.93,0,0,1,2.16-6A19.38,19.38,0,0,1,156,52.61Z"/><path class="cls-1" d="M210.29,35a1.7,1.7,0,0,0-1.14-.49H197.42a1.66,1.66,0,0,0-1.21.53,2.19,2.19,0,0,0-.66,1.19l-5.83,33.05a27.2,27.2,0,0,0,0,11.38,15.93,15.93,0,0,0,4.11,7.53A16.78,16.78,0,0,0,201,92.33a32.2,32.2,0,0,0,9.22,1.28,37.56,37.56,0,0,0,9.65-1.24,24.93,24.93,0,0,0,15.37-11.58,33.22,33.22,0,0,0,4.05-11.52l5.82-33a1.45,1.45,0,0,0-.29-1.19,1.56,1.56,0,0,0-1.32-.53H232.07a2,2,0,0,0-1.4.51,2.08,2.08,0,0,0-.71,1.21L224.1,69.49a14.46,14.46,0,0,1-1.58,4.59,12.31,12.31,0,0,1-2.67,3.36,11.09,11.09,0,0,1-3.42,2,11.26,11.26,0,0,1-3.84.68,10.26,10.26,0,0,1-3.53-.59,6.35,6.35,0,0,1-2.73-1.86,7.46,7.46,0,0,1-1.54-3.29,12.82,12.82,0,0,1,.06-4.93l5.87-33.27A1.25,1.25,0,0,0,210.29,35Z"/><path class="cls-1" d="M292.6,92.37a1.41,1.41,0,0,0,.58-1,2.43,2.43,0,0,0-.2-1.29q-.3-.75-.48-1.29l-6.73-19a25.8,25.8,0,0,0,4.42-2.92,24.89,24.89,0,0,0,3.74-3.8,23.67,23.67,0,0,0,2.82-4.51,20,20,0,0,0,1.62-5.07,17.25,17.25,0,0,0-.21-7.39A15,15,0,0,0,289.66,36a17.12,17.12,0,0,0-7.3-1.51H257a1.93,1.93,0,0,0-1.38.49A2.25,2.25,0,0,0,255,36.3l-9.26,52.51L245.35,91l-2.67,15.15H14.12L29.19,20.68H469.12L431.4,0l-1.53,8.68H19.3L0,118.17H255.73l2.08-11.79,0-.21L260.52,91l.39-2.21,2.73-15.47H270l6.36,17.92a1.46,1.46,0,0,0,.5,1,1.65,1.65,0,0,0,1.13.4h13.44A2,2,0,0,0,292.6,92.37ZM281.8,56.15a9.14,9.14,0,0,1-1.52,2.16,8.3,8.3,0,0,1-2.13,1.61,7,7,0,0,1-2.61.8l-1.23.12c-.37,0-.79,0-1.26,0h-7.22l2.54-14.39h5.41c.76,0,1.45,0,2.09.06l2,.14a5.38,5.38,0,0,1,3.87,2.51,6.17,6.17,0,0,1,.83,2.15,6.4,6.4,0,0,1,0,2.35A8.84,8.84,0,0,1,281.8,56.15Z"/><path class="cls-1" d="M326.05,78.36a7,7,0,0,1-2.34,1.2,11.55,11.55,0,0,1-3.43.45,10.42,10.42,0,0,1-4-.75,15.52,15.52,0,0,1-3.59-2.08,17,17,0,0,1-2.05-1.82c-.59-.61-1.07-1.1-1.45-1.47a5.5,5.5,0,0,0-.81-.7,1.26,1.26,0,0,0-.71-.24,3.07,3.07,0,0,0-1.43.59L298.33,80a2.8,2.8,0,0,0-1.17,1.49,2.28,2.28,0,0,0,.62,1.57l.07.06s0,.05.06.1a.19.19,0,0,0,.07.06.16.16,0,0,1,.06.1l.1.12c.34.44.8,1,1.39,1.76a15.36,15.36,0,0,0,2.25,2.24,27.07,27.07,0,0,0,7.35,4.33,23.19,23.19,0,0,0,8.58,1.61,31.09,31.09,0,0,0,9.18-1.35,28.1,28.1,0,0,0,7.9-3.82,23.29,23.29,0,0,0,5.9-6,20.11,20.11,0,0,0,3.14-7.82,14.41,14.41,0,0,0-.21-6.94,11.5,11.5,0,0,0-3.11-4.92,20.63,20.63,0,0,0-5.43-3.57q-3.24-1.5-7.15-2.88c-1.36-.47-2.54-.9-3.55-1.31a11.8,11.8,0,0,1-2.5-1.29,4.25,4.25,0,0,1-1.38-1.49,3,3,0,0,1-.22-1.9,3.84,3.84,0,0,1,.84-1.86,4.88,4.88,0,0,1,1.59-1.24,8.37,8.37,0,0,1,2.12-.69,14,14,0,0,1,2.47-.21,7.63,7.63,0,0,1,2.4.37,11.56,11.56,0,0,1,2.15.94,12.18,12.18,0,0,1,1.83,1.28c.56.47,1.06.92,1.51,1.37l.29.31a11.37,11.37,0,0,0,.86.79,1.55,1.55,0,0,0,1,.31,2.31,2.31,0,0,0,1.45-.67l7.12-6.39a6.88,6.88,0,0,0,.94-1,2.1,2.1,0,0,0,.42-.94,1.8,1.8,0,0,0-.32-1.21,7.13,7.13,0,0,0-1.16-1.49,21.76,21.76,0,0,0-1.81-1.63c-.7-.56-1.45-1.1-2.24-1.63a21.64,21.64,0,0,0-6-2.56,26.68,26.68,0,0,0-6.7-.81,31.94,31.94,0,0,0-8.79,1.16,24.61,24.61,0,0,0-7.14,3.27A19,19,0,0,0,308,42.76a17.07,17.07,0,0,0-2.64,6.62,15.17,15.17,0,0,0,.08,6.25A12.67,12.67,0,0,0,308,60.76,19.89,19.89,0,0,0,313.16,65a48.17,48.17,0,0,0,7.61,3.54c.66.24,1.45.53,2.35.88a15.65,15.65,0,0,1,2.56,1.27,7.66,7.66,0,0,1,2,1.71,2.6,2.6,0,0,1,.53,2.17,7.17,7.17,0,0,1-.69,2.08A5.44,5.44,0,0,1,326.05,78.36Z"/><path class="cls-1" d="M372.08,34.5H360.56a1.86,1.86,0,0,0-1.38.51,2.16,2.16,0,0,0-.65,1.21L348.88,91c-.21,1.15.27,1.73,1.42,1.73h11.52A2,2,0,0,0,364,91l9.66-54.76a1.24,1.24,0,0,0-.44-1.25A1.84,1.84,0,0,0,372.08,34.5Z"/><path class="cls-1" d="M421.63,34.5A2.59,2.59,0,0,0,419.21,36q-2.4,4.47-4.65,8.92t-4.47,8.91q-2.22,4.47-4.48,8.92T401,71.66L395.3,36a1.64,1.64,0,0,0-1.78-1.49H380.9c-1,0-1.51.36-1.64,1.1a.81.81,0,0,0,0,.31,1,1,0,0,1,0,.35L390.08,88.9c.12.53.25,1,.38,1.53a11.85,11.85,0,0,0,.51,1.45c.16.55.65.83,1.46.83h9.68a1.84,1.84,0,0,0,1.13-.4,5,5,0,0,0,1-1,9.22,9.22,0,0,0,.85-1.23c.26-.44.49-.85.68-1.22l29.51-52.64,0-.12a1.68,1.68,0,0,0,.12-.43,1,1,0,0,0-.22-.88A1.67,1.67,0,0,0,434,34.5Z"/><path class="cls-1" d="M441.47,35a2.22,2.22,0,0,0-.68,1.31L431.14,91a1.41,1.41,0,0,0,.25,1.28,1.56,1.56,0,0,0,1.18.41H472.2a1.65,1.65,0,0,0,1.8-1.1,1.25,1.25,0,0,0,.44-.7l1.73-9.85q.31-1.8-1.44-1.8H448.39l1.76-10h19.64a1.86,1.86,0,0,0,1.35-.51,2,2,0,0,0,.61-1.06l1.5-8.47A1.15,1.15,0,0,0,473,58a1.74,1.74,0,0,0-1.17-.36h-19.6l1.72-9.72h25.4a2,2,0,0,0,1.48-.6,2.55,2.55,0,0,0,.69-1.27l1.71-9.7A1.71,1.71,0,0,0,483,35a1.45,1.45,0,0,0-1.24-.51H442.83A1.93,1.93,0,0,0,441.47,35Z"/><path class="cls-1" d="M535.86,92.22a1.31,1.31,0,0,0,1.13.49h11.73a2,2,0,0,0,2.12-1.85L554.7,69l24.38-32.88a1.93,1.93,0,0,0,.72-1,.48.48,0,0,0-.1-.42.54.54,0,0,0-.42-.17H564.19a3.6,3.6,0,0,1-.43.1.89.89,0,0,0-.35.11A1.48,1.48,0,0,0,563,35a7.48,7.48,0,0,0-.52.68L549.48,56l-6-20.27a7.21,7.21,0,0,0-.31-.68.86.86,0,0,0-.26-.32.65.65,0,0,0-.29-.11l-.41-.1H527.15a.7.7,0,0,0-.47.17.8.8,0,0,0-.23.42,1.23,1.23,0,0,0,.34,1l12.76,32.8-3.88,22A1.79,1.79,0,0,0,535.86,92.22Z"/><path class="cls-1" d="M567.23,80.16a2.16,2.16,0,0,0-.65,1.26L564.9,90.9c-.21,1.21.26,1.81,1.41,1.81h10.38a2,2,0,0,0,1.45-.55,2.31,2.31,0,0,0,.68-1.26l1.67-9.48a1.32,1.32,0,0,0-.35-1.26,1.61,1.61,0,0,0-1.15-.47H568.61A2,2,0,0,0,567.23,80.16Z"/><path class="cls-2" d="M641.87,38.73A24.36,24.36,0,0,0,634.68,35,27.09,27.09,0,0,0,626,33.64a31.27,31.27,0,0,0-8.17,1.07,37.13,37.13,0,0,0-7.69,3,37.84,37.84,0,0,0-6.88,4.69,39.51,39.51,0,0,0-5.76,6.09,37.24,37.24,0,0,0-4.28,7.17,33.12,33.12,0,0,0-2.47,8,29.25,29.25,0,0,0-.34,8,24.69,24.69,0,0,0,1.76,7.13,23.53,23.53,0,0,0,3.62,6,23.15,23.15,0,0,0,5.23,4.68,24.36,24.36,0,0,0,6.62,3,27.57,27.57,0,0,0,7.79,1.06,31.75,31.75,0,0,0,9.19-1.35,38.28,38.28,0,0,0,8.62-3.83,3.26,3.26,0,0,0,1.15-1,1.57,1.57,0,0,0,.14-1.45l-5-9.64a1.24,1.24,0,0,0-.81-.7,2,2,0,0,0-1.24.35,18.46,18.46,0,0,1-4.67,2.25,16.35,16.35,0,0,1-5.08.81,12.88,12.88,0,0,1-5.71-1.22A11.16,11.16,0,0,1,608,74.5a12.23,12.23,0,0,1-2.19-4.9,15.78,15.78,0,0,1,0-6,18.93,18.93,0,0,1,2.16-6,19.82,19.82,0,0,1,3.93-4.94,18.19,18.19,0,0,1,5.26-3.33,15.78,15.78,0,0,1,6.13-1.22,14,14,0,0,1,4.76.78,12,12,0,0,1,3.84,2.24,1.5,1.5,0,0,0,1.14.33,2,2,0,0,0,1-.76l8.28-9.41a1.72,1.72,0,0,0,.38-1.49A1.86,1.86,0,0,0,641.87,38.73Z"/><path class="cls-2" d="M635.87,63.66a29.27,29.27,0,0,0-.35,8,25,25,0,0,0,1.77,7.13,23.45,23.45,0,0,0,8.85,10.72,24.56,24.56,0,0,0,6.63,3,27.62,27.62,0,0,0,7.79,1.06,31.71,31.71,0,0,0,8.15-1.06,35.49,35.49,0,0,0,7.71-3,39.06,39.06,0,0,0,6.91-4.68,38.16,38.16,0,0,0,5.75-6,37.25,37.25,0,0,0,4.28-7.13,32.28,32.28,0,0,0,2.48-8,28.47,28.47,0,0,0,.33-8,26.7,26.7,0,0,0-1.75-7.17,23.34,23.34,0,0,0-3.61-6.09,23.07,23.07,0,0,0-5.26-4.69,25.43,25.43,0,0,0-6.64-3,27.34,27.34,0,0,0-7.78-1.07A31.33,31.33,0,0,0,663,34.71a37.13,37.13,0,0,0-7.69,3,37.92,37.92,0,0,0-6.89,4.69,39.51,39.51,0,0,0-5.76,6.09,37.24,37.24,0,0,0-4.28,7.17A33.12,33.12,0,0,0,635.87,63.66Zm17.34-6.09a19.37,19.37,0,0,1,3.95-5,18.37,18.37,0,0,1,5.27-3.33,15.82,15.82,0,0,1,6.16-1.22,13,13,0,0,1,5.75,1.22,11.16,11.16,0,0,1,4.12,3.33,12.23,12.23,0,0,1,2.19,5,15.75,15.75,0,0,1,0,6,18.73,18.73,0,0,1-2.17,6.08,19.1,19.1,0,0,1-3.94,4.92,18.33,18.33,0,0,1-5.27,3.29,16.19,16.19,0,0,1-6.18,1.19,13.06,13.06,0,0,1-5.74-1.19,11.26,11.26,0,0,1-4.1-3.29,12.15,12.15,0,0,1-2.21-4.92,15.91,15.91,0,0,1,0-6.08A19.12,19.12,0,0,1,653.21,57.57Z"/><path class="cls-1" d="M495.64,8.68l-2.05,11.61-.07.39-2.73,15.5-.35,2L481.12,91c-.2,1.15.28,1.73,1.43,1.73h35a2.08,2.08,0,0,0,1.38-.59,2.31,2.31,0,0,0,.66-1.22l1.82-10.31a1.45,1.45,0,0,0-.28-1.29,1.47,1.47,0,0,0-1.13-.47H498.44L506,36.18h0l2.73-15.5H714.2l-15.07,85.49h-417l37.72,20.68,1.54-8.68H709L728.32,8.68Z"/></g></g></svg>